<svg width="800" height="800" viewBox="0 0 800 800" fill="none" xmlns="http://www.w3.org/2000/svg">
<g clip-path="url(#clip0_101_48)">
<path fill-rule="evenodd" clip-rule="evenodd" d="M719.984 665.969C719.984 688.037 702.104 719.622 679.984 719.622H119.984C97.9044 719.622 79.9844 688.037 79.9844 665.969V106.287C79.9844 84.2191 97.9044 79.9781 119.984 79.9781H479.984V226.218C479.984 270.354 515.824 319.846 559.984 319.846H719.984V665.969ZM788.304 214.504L571.704 4.90483C564.224 -2.61117 554.024 0.0269041 543.424 0.0269041H79.9844C35.8244 0.0269041 -0.015625 22.131 -0.015625 66.3062V705.95C-0.015625 750.085 35.8244 799.578 79.9844 799.578H719.984C764.184 799.578 799.984 750.085 799.984 705.95V242.771C799.984 232.177 795.784 221.98 788.304 214.504Z" fill="black"/>
</g>
<defs>
<clipPath id="clip0_101_48">
<rect width="800" height="800" fill="white"/>
</clipPath>
</defs>
</svg>
