<svg width="479" height="700" viewBox="0 0 479 700" fill="none" xmlns="http://www.w3.org/2000/svg">
<path d="M429.514 37.8281C456.467 37.8281 478.342 59.7031 478.342 86.6562C478.342 113.609 456.467 135.484 429.514 135.484H415.061C407.717 147.047 395.764 154.859 382.17 156.969L395.139 446.812C395.139 465.562 389.826 483.453 379.826 499.078C379.904 499.781 371.858 682.828 371.858 682.828C371.623 692.047 364.045 699.547 354.748 699.547H324.201C319.826 699.547 315.842 697.906 312.873 695.172C310.295 697.047 307.17 698.141 303.733 698.141H273.186C264.592 698.141 257.639 691.266 257.483 682.75L251.389 543.688H194.436L188.264 682.828C188.029 692.047 180.451 699.547 171.154 699.547H140.608C136.233 699.547 132.248 697.906 129.279 695.172C126.701 697.047 123.576 698.141 120.139 698.141H89.5919C80.9982 698.141 74.0451 691.266 73.8888 682.75C73.8888 682.75 63.5763 449.156 63.5763 446.812C63.5763 431.188 67.2482 416.187 74.2013 402.594C54.0451 408.219 38.8107 425.562 36.0763 446.734C36.2326 446.812 36.3888 446.891 36.5451 447.047C41.6232 450.562 45.0607 455.875 46.1545 461.969C46.6232 464.703 46.6232 467.437 46.1545 470.172L43.9669 482.047C42.1701 492.203 33.2638 499.391 23.2638 499.391C22.0138 499.391 20.7638 499.312 19.5138 499.078C10.9201 497.516 4.1232 490.719 2.5607 482.125L0.373209 470.172C-0.720541 464.078 0.607574 457.906 4.1232 452.828C5.9982 450.094 8.42008 447.906 11.2326 446.188C14.9045 406.812 48.1076 375.875 88.4201 375.875H94.4357C104.983 366.266 118.108 359.625 118.342 359.469C131.545 353.141 145.608 349.937 160.373 349.937H254.748L275.451 90.5625C265.764 90.0156 255.217 85.0156 246.154 75.9531C238.733 68.5312 233.889 60.1719 232.17 51.6562C230.061 41.5781 232.717 31.9687 239.358 25.3281C245.998 18.6875 255.608 16.1094 265.686 18.1406C274.201 19.8594 282.639 24.7031 289.983 32.125C293.654 35.7969 296.701 39.7031 298.967 43.7656C301.545 42.2813 304.279 41.1094 307.092 40.0937V14C307.092 6.42187 313.264 0.25 320.842 0.25C328.42 0.25 334.592 6.42187 334.592 14V37.8281H339.748V14C339.748 6.42187 345.92 0.25 353.498 0.25C361.076 0.25 367.248 6.42187 367.248 14V37.8281H429.514Z" fill="#372114"/>
<path d="M429.514 62.5938C442.795 62.5938 453.654 73.4531 453.654 86.7344C453.654 100.016 442.795 110.875 429.514 110.875H407.561C402.561 110.875 398.029 113.922 396.154 118.531C392.561 127.281 384.045 132.984 374.592 132.984C373.42 132.984 372.17 132.906 370.998 132.672C367.326 132.047 363.498 133.219 360.764 135.719C357.951 138.219 356.545 141.891 356.779 145.641L357.951 164.391C337.17 171.734 322.639 191.422 322.639 214.156C322.639 239.313 340.529 260.484 364.358 265.719L370.529 446.891C370.529 462.516 365.608 477.281 356.389 489.781C345.529 504.391 329.748 514.312 311.936 517.672H311.779L311.389 517.75C305.842 518.844 301.701 523.609 301.467 529.313L295.139 673.453H281.779L275.529 530.797C275.217 524.156 269.826 519 263.186 519H129.983C123.342 519 117.951 524.234 117.639 530.797L111.623 668.141H97.795C97.795 668.141 88.1075 448.609 88.1075 446.891C88.1075 428.375 95.0607 410.875 107.795 397.438C112.873 417.984 132.483 433.375 155.842 433.375C183.029 433.375 205.139 412.516 205.139 386.891C205.139 382.75 204.592 378.687 203.498 374.859H265.998C266.233 374.859 266.467 374.859 266.701 374.781C295.373 374.547 318.654 351.109 318.654 322.438C318.654 300.406 305.217 281.422 285.451 273.688C285.451 273.688 300.764 82.0469 300.842 81.6563C301.467 71.0313 310.373 62.6719 321.076 62.6719L429.514 62.5938Z" fill="#975A28"/>
<path d="M358.342 72.3594C365.764 72.3594 371.779 78.375 371.779 85.7969C371.779 93.2188 365.764 99.2344 358.342 99.2344C350.92 99.2344 344.904 93.2188 344.904 85.7969C344.904 78.375 350.92 72.3594 358.342 72.3594Z" fill="#372114"/>
<path d="M359.592 191.031L362.639 239C353.498 234.313 347.326 224.859 347.326 214.078C347.326 204.625 352.092 196.109 359.592 191.031Z" fill="#B88D5B"/>
<path d="M346.467 451.031C348.967 464.156 345.686 476.266 337.639 484.391C331.076 490.953 322.326 494.078 312.873 494.078C299.279 494.078 284.201 487.594 271.858 475.25C262.404 465.797 256.076 454.313 253.889 442.75C251.389 429.625 254.67 417.516 262.717 409.391C270.842 401.266 282.951 398.063 296.076 400.563C301.858 401.657 307.639 403.766 313.108 406.813C318.576 409.86 323.889 413.844 328.576 418.532C337.951 427.907 344.279 439.469 346.467 451.031Z" fill="#372114"/>
<path d="M322.17 455.563C322.639 457.906 323.264 463.688 320.139 466.813C316.936 470.016 311.233 469.313 308.889 468.844C302.248 467.594 295.139 463.531 289.279 457.672C283.42 451.812 279.357 444.703 278.107 438.063C277.639 435.719 277.014 429.937 280.139 426.812C282.092 424.859 284.982 424.391 287.482 424.391C289.123 424.391 290.529 424.625 291.467 424.781C298.108 426.031 305.217 430.094 311.076 435.953C316.858 441.813 320.92 449 322.17 455.563ZM283.342 300.562C289.826 305.641 293.967 313.531 293.967 322.359C293.967 332.75 288.186 341.812 279.67 346.5L283.342 300.562Z" fill="#B88D5B"/>
<path d="M272.326 49.625C279.904 56.8125 280.686 63.7656 279.123 65.3281C277.561 66.8906 270.764 65.9531 263.42 58.5312C259.592 54.7031 256.936 50.4062 256.233 46.7344C255.998 45.6406 255.764 43.7656 256.701 42.8281C257.248 42.3594 258.029 42.2031 258.811 42.2031C259.436 42.2031 264.436 42.2031 272.326 49.625Z" fill="#975A28"/>
<path d="M176.311 374.781C178.967 378.297 180.451 382.438 180.451 386.813C180.451 398.844 169.436 408.609 155.842 408.609C142.248 408.609 131.233 398.844 131.233 386.813C131.233 384.625 131.623 382.438 132.326 380.406C141.154 376.656 150.529 374.781 160.295 374.781H176.311Z" fill="#B88D5B"/>
<path d="M166.858 543.688L161.154 672.125H150.529L145.92 543.688H166.858ZM351.311 527.984L344.826 672.125H334.201L329.748 538.453C337.404 535.797 344.592 532.281 351.311 527.984Z" fill="#975A28"/>
</svg>
