<svg width="601" height="614" viewBox="0 0 601 614" fill="none" xmlns="http://www.w3.org/2000/svg">
<path d="M34.069 580.5L34.0691 134.01C34.0691 102.95 34.0724 87.4233 39.1457 75.1699C45.9124 58.8366 58.8791 45.8432 75.2157 39.0766C87.4657 33.9999 103.016 33.9999 134.079 33.9999C165.142 33.9999 514.005 33.9999 526.256 39.0766C542.592 45.8433 555.561 58.8366 562.328 75.17C567.402 87.4233 567.402 102.95 567.402 134.01L567.402 580.5" stroke="black" stroke-width="66.6667" stroke-linecap="round" stroke-linejoin="round"/>
<path d="M142.312 558.86V530.69C147.652 533.45 152.782 535.34 157.702 536.36C162.622 537.32 167.002 537.8 170.842 537.8C174.742 537.8 177.682 536.69 179.662 534.47C181.702 532.19 182.722 528.32 182.722 522.86V442.22H211.882V522.86C211.882 533.54 210.172 542.03 206.752 548.33C203.392 554.57 198.832 559.07 193.072 561.83C187.312 564.53 180.802 565.88 173.542 565.88C167.782 565.88 162.262 565.22 156.982 563.9C151.702 562.58 146.812 560.9 142.312 558.86ZM239.756 563V442.22H286.106C300.026 442.22 311.066 445.58 319.226 452.3C327.386 458.96 331.466 468.83 331.466 481.91C331.466 494.93 327.386 504.83 319.226 511.61C311.066 518.33 300.026 521.69 286.106 521.69H268.736V563H239.756ZM268.736 496.49H286.106C291.326 496.49 295.256 495.05 297.896 492.17C300.596 489.23 301.946 485.81 301.946 481.91C301.946 477.95 300.596 474.5 297.896 471.56C295.256 468.62 291.326 467.15 286.106 467.15H268.736V496.49ZM395.883 565.88C385.743 565.88 376.653 563.18 368.613 557.78C360.633 552.38 354.303 544.94 349.623 535.46C345.003 525.92 342.693 514.97 342.693 502.61C342.693 493.31 344.043 484.82 346.743 477.14C349.503 469.4 353.403 462.74 358.443 457.16C363.543 451.52 369.603 447.17 376.623 444.11C383.703 441.05 391.563 439.52 400.203 439.52C413.283 439.52 423.933 442.49 432.153 448.43C440.373 454.31 446.223 463.55 449.703 476.15L419.103 481.64C417.063 476.66 414.363 472.73 411.003 469.85C407.643 466.97 403.503 465.53 398.583 465.53C393.903 465.53 389.673 467.03 385.893 470.03C382.173 473.03 379.233 477.29 377.073 482.81C374.913 488.33 373.833 494.93 373.833 502.61C373.833 510.23 374.913 516.83 377.073 522.41C379.233 527.93 382.173 532.19 385.893 535.19C389.673 538.19 393.903 539.69 398.583 539.69C403.203 539.69 407.313 538.73 410.913 536.81C414.573 534.83 417.423 532.19 419.463 528.89C421.563 525.53 422.613 521.84 422.613 517.82H427.653C427.653 527.66 426.483 536.18 424.143 543.38C421.803 550.58 418.293 556.13 413.613 560.03C408.933 563.93 403.023 565.88 395.883 565.88ZM426.213 563L422.613 538.16V516.74L398.583 516.56V498.92H449.973V563H426.213Z" fill="black"/>
</svg>
