<svg width="601" height="614" viewBox="0 0 601 614" fill="none" xmlns="http://www.w3.org/2000/svg">
<path d="M34.0695 580.5L34.0696 134.01C34.0696 102.95 34.0729 87.4233 39.1462 75.1699C45.9129 58.8366 58.8796 45.8432 75.2162 39.0766C87.4662 33.9999 103.016 33.9999 134.08 33.9999C165.142 33.9999 514.006 33.9999 526.257 39.0766C542.592 45.8433 555.562 58.8366 562.328 75.17C567.403 87.4233 567.403 102.95 567.403 134.01L567.403 580.5" stroke="black" stroke-width="66.6667" stroke-linecap="round" stroke-linejoin="round"/>
<path d="M122.526 442.22H163.746L190.476 506.66H188.226L214.956 442.22H254.556V563H225.576V477.05H229.536L198.486 551.75H179.856L148.986 477.23H151.326V563H122.526V442.22ZM284.404 563V442.22H330.754C344.674 442.22 355.714 445.58 363.874 452.3C372.034 458.96 376.114 468.83 376.114 481.91C376.114 494.93 372.034 504.83 363.874 511.61C355.714 518.33 344.674 521.69 330.754 521.69H313.384V563H284.404ZM313.384 496.49H330.754C335.974 496.49 339.904 495.05 342.544 492.17C345.244 489.23 346.594 485.81 346.594 481.91C346.594 477.95 345.244 474.5 342.544 471.56C339.904 468.62 335.974 467.15 330.754 467.15H313.384V496.49ZM443.142 441.32H471.402V513.95H492.462V538.79H471.402V563H442.782V538.79H382.842V517.28L443.142 441.32ZM444.402 482.63L416.862 517.28H444.402V482.63Z" fill="black"/>
</svg>
