<svg width="601" height="614" viewBox="0 0 601 614" fill="none" xmlns="http://www.w3.org/2000/svg">
<path d="M34.0695 580.5L34.0696 134.01C34.0696 102.95 34.0729 87.4233 39.1462 75.1699C45.9129 58.8366 58.8796 45.8432 75.2162 39.0766C87.4662 33.9999 103.016 33.9999 134.08 33.9999C165.142 33.9999 514.006 33.9999 526.257 39.0766C542.592 45.8433 555.562 58.8366 562.328 75.17C567.403 87.4233 567.403 102.95 567.403 134.01L567.403 580.5" stroke="black" stroke-width="66.6667" stroke-linecap="round" stroke-linejoin="round"/>
<path d="M144.482 563V442.22H190.832C204.752 442.22 215.792 445.58 223.952 452.3C232.112 458.96 236.192 468.83 236.192 481.91C236.192 494.93 232.112 504.83 223.952 511.61C215.792 518.33 204.752 521.69 190.832 521.69H173.462V563H144.482ZM173.462 496.49H190.832C196.052 496.49 199.982 495.05 202.622 492.17C205.322 489.23 206.672 485.81 206.672 481.91C206.672 477.95 205.322 474.5 202.622 471.56C199.982 468.62 196.052 467.15 190.832 467.15H173.462V496.49ZM254.89 442.22H297.64C310.06 442.22 321.01 444.68 330.49 449.6C339.97 454.52 347.38 461.51 352.72 470.57C358.12 479.57 360.82 490.31 360.82 502.79C360.82 515.09 358.12 525.77 352.72 534.83C347.38 543.83 339.97 550.79 330.49 555.71C321.01 560.57 310.06 563 297.64 563H254.89V442.22ZM283.69 468.68V536.72H297.64C304.18 536.72 309.82 535.25 314.56 532.31C319.36 529.31 323.05 525.26 325.63 520.16C328.27 515.06 329.59 509.27 329.59 502.79C329.59 496.07 328.27 490.16 325.63 485.06C323.05 479.96 319.36 475.97 314.56 473.09C309.82 470.15 304.18 468.68 297.64 468.68H283.69ZM383.562 563V442.22H462.312V467.15H412.362V490.82H457.092V515.39H412.362V563H383.562Z" fill="black"/>
</svg>
