<svg width="601" height="614" viewBox="0 0 601 614" fill="none" xmlns="http://www.w3.org/2000/svg">
<path d="M34.069 580.5L34.0691 134.01C34.0691 102.95 34.0724 87.4233 39.1457 75.1699C45.9124 58.8366 58.8791 45.8432 75.2157 39.0766C87.4657 33.9999 103.016 33.9999 134.079 33.9999C165.142 33.9999 514.005 33.9999 526.256 39.0766C542.592 45.8433 555.561 58.8366 562.328 75.17C567.402 87.4233 567.402 102.95 567.402 134.01L567.402 580.5" stroke="black" stroke-width="66.6667" stroke-linecap="round" stroke-linejoin="round"/>
<path d="M168.972 563V538.61L235.302 458.06V468.41L168.972 468.68V442.22H263.022V466.25L202.902 539.87V536.72L263.022 536.54V563H168.972ZM291.276 563V442.22H320.076V563H291.276ZM349.97 563V442.22H396.32C410.24 442.22 421.28 445.58 429.44 452.3C437.6 458.96 441.68 468.83 441.68 481.91C441.68 494.93 437.6 504.83 429.44 511.61C421.28 518.33 410.24 521.69 396.32 521.69H378.95V563H349.97ZM378.95 496.49H396.32C401.54 496.49 405.47 495.05 408.11 492.17C410.81 489.23 412.16 485.81 412.16 481.91C412.16 477.95 410.81 474.5 408.11 471.56C405.47 468.62 401.54 467.15 396.32 467.15H378.95V496.49Z" fill="black"/>
</svg>
